<svg id="Layer_1" enable-background="new 0 0 512.016 512.016" height="512" viewBox="0 0 512.016 512.016" width="512" xmlns="http://www.w3.org/2000/svg"><g><ellipse cx="132.427" cy="49.849" fill="#fff68e" rx="49.849" ry="49.848" transform="matrix(.973 -.23 .23 .973 -7.91 31.759)"/><path d="m327.603 61.194-95.104 118.459 55.7 83.5 39.383-37.326 75.892 72.266 38.764-94.197z" fill="#fff5f5"/><path d="m442.238 203.896-114.635-142.702v164.653l75.871 72.246z" fill="#eddee7"/><path d="m420.787 177.193-28.372 68.944-64.784-61.689-34.231 32.443-41.205-61.771-91.553 114.036 195.095 242.86h156.239v-221.309z" fill="#00aa95"/><path d="m420.787 177.193-28.372 68.944-64.784-61.689-.028.027v292.518l28.134 35.023h156.239v-221.309z" fill="#008285"/><path d="m132.427 185.887-132.387 164.573v161.556h394.178z" fill="#a5e887"/><path d="m182.275 49.849c0-27.487-22.362-49.849-49.848-49.849v99.697c27.486 0 49.848-22.362 49.848-49.848z" fill="#ffda44"/><path d="m132.427 185.887v326.129h261.791z" fill="#00cc76"/></g></svg>