<?xml version="1.0" encoding="iso-8859-1"?>
<!-- Generator: Adobe Illustrator 19.0.0, SVG Export Plug-In . SVG Version: 6.00 Build 0)  -->
<svg version="1.1" id="Capa_1" xmlns="http://www.w3.org/2000/svg" xmlns:xlink="http://www.w3.org/1999/xlink" x="0px" y="0px"
	 viewBox="0 0 512.003 512.003" style="enable-background:new 0 0 512.003 512.003;" xml:space="preserve">
<rect x="149.492" y="60.549" style="fill:#FFA900;" width="30" height="90.79"/>
<rect x="164.492" y="60.549" style="fill:#FF8800;" width="15" height="90.79"/>
<g>
	
		<rect x="69.448" y="119.702" transform="matrix(-0.5 -0.866 0.866 -0.5 37.332 290.9571)" style="fill:#FFA900;" width="66.419" height="29.999"/>
	
		<rect x="87.639" y="315.719" transform="matrix(-0.866 -0.5 0.5 -0.866 17.0571 702.4266)" style="fill:#FFA900;" width="29.999" height="66.419"/>
	<rect x="7.592" y="226.819" style="fill:#FFA900;" width="66.42" height="30"/>
	
		<rect x="1.417" y="158.876" transform="matrix(-0.866 -0.5 0.5 -0.866 0.4203 347.8648)" style="fill:#FFA900;" width="90.798" height="29.999"/>
	
		<rect x="31.828" y="264.362" transform="matrix(-0.5 -0.866 0.866 -0.5 -198.0171 505.198)" style="fill:#FFA900;" width="29.999" height="90.798"/>
</g>
<g>
	
		<rect x="211.343" y="101.49" transform="matrix(-0.866 -0.5 0.5 -0.866 355.0082 364.525)" style="fill:#FF8800;" width="29.999" height="66.419"/>
	
		<rect x="267.177" y="128.479" transform="matrix(-0.5 -0.866 0.866 -0.5 272.6867 505.1898)" style="fill:#FF8800;" width="29.999" height="90.798"/>
</g>
<circle style="fill:#FFDB0C;" cx="164.492" cy="241.819" r="101.52"/>
<path style="fill:#FBBF00;" d="M164.492,140.297c0,28.031,0,149.549,0,203.047c56.07,0,101.524-45.454,101.524-101.524
	S220.562,140.297,164.492,140.297z"/>
<path style="fill:#82D2FF;" d="M422.915,273.28c-4.167,0-8.264,0.293-12.278,0.846c-17.976-42.961-60.406-73.148-109.889-73.148
	c-58.135,0-106.532,41.665-116.978,96.762c-41.284,1.34-74.342,35.224-74.342,76.834c0,42.46,34.42,76.88,76.88,76.88h236.607
	c49.201,0,89.087-39.885,89.087-89.087C512.002,313.166,472.116,273.28,422.915,273.28z"/>
<path style="fill:#08B7FC;" d="M422.915,273.28c-4.167,0-8.264,0.293-12.278,0.846c-17.976-42.961-60.406-73.148-109.889-73.148
	c0,55.842,0,250.475,0,250.475h122.168c49.201,0,89.087-39.885,89.087-89.087C512.002,313.166,472.116,273.28,422.915,273.28z"/>
<g>
</g>
<g>
</g>
<g>
</g>
<g>
</g>
<g>
</g>
<g>
</g>
<g>
</g>
<g>
</g>
<g>
</g>
<g>
</g>
<g>
</g>
<g>
</g>
<g>
</g>
<g>
</g>
<g>
</g>
</svg>
